<svg width="1728" height="1066" viewBox="0 0 1728 1066" fill="none" xmlns="http://www.w3.org/2000/svg">
<path d="M1662.63 1186.39L1702.13 1163.53L1759.57 1130.29L1826.12 1168.76V1165.83L1790.77 1145.41L1762.09 1128.84L1787.68 1114.06L1819.63 1095.61L1826.12 1091.86V1088.93L1759.57 1127.25L1643.77 1060.37L1655.01 1053.86L1701.31 1027.14L1758.76 993.901L1826.05 1032.75V1029.82L1761.36 992.559L1818.81 959.324L1826.03 955.163V952.233L1816.27 957.845L1758.81 991.081L1747.87 984.784L1643 924.199L1689.24 897.479L1700.55 890.963L1750.41 862.381L1758.29 857.836L1826.33 897.123V894.193L1766.64 859.643L1760.71 856.221L1770.49 850.581L1818.24 822.985L1826.2 818.385V815.456L1815.69 821.535L1758.24 854.771L1642.45 787.86L1699.91 754.624L1757.36 721.388L1826.2 761.085V758.348L1759.96 720.02L1761.83 718.979L1775.51 711.012L1817.44 686.784L1820.84 684.84L1826.2 681.692V678.763L1757.44 718.487L1641.64 651.576L1699.09 618.341L1721.6 605.336L1756.6 585.105L1826.12 625.267V622.337L1759.15 583.653L1816.6 550.419L1826.03 544.943V542.068L1814.05 548.995L1756.6 582.231L1745.65 575.907L1640.99 515.265L1659.75 504.315L1698.44 482.029L1748.07 453.365L1755.97 448.793L1826.2 489.367V486.437L1764.43 450.847L1758.63 447.343L1788.93 429.821L1816.01 414.189L1826.2 408.303V405.183L1813.48 412.519L1799.25 420.732L1755.88 445.864L1640.16 378.955L1658.19 368.552L1697.69 345.747L1755.15 312.483L1826.12 353.549V350.62L1786.33 327.649L1757.67 311.224L1783.24 296.44L1815.2 277.988L1826.15 271.691V268.543L1755.17 309.608L1639.43 242.671L1650.67 236.156L1696.96 209.436L1754.41 176.2L1826.2 217.621V214.692L1757.01 174.721L1814.45 141.485L1826.12 134.751V131.821L1811.92 140.035L1754.47 173.271L1743.52 166.973L1638.68 106.36L1684.92 79.64L1696.21 73.124L1745.84 44.4333L1753.72 39.888L1826.2 81.748V78.8187L1762.2 41.8587L1756.27 38.328L1766.07 32.8533L1813.8 5.17333L1822.77 0H1817.69L1811.25 3.72267L1753.81 36.9587L1689.79 0H1684.76L1751.27 38.328L1740.95 44.296L1734.85 47.8L1693.81 71.564L1636.36 104.8L1533.13 45.364L1520.36 38L1577.81 4.764L1586.01 0H1580.96L1575.32 3.28533L1545.07 20.7787L1526.55 31.484L1517.87 36.5213L1515.13 35.0427H1514.97L1454.59 0H1449.48L1515.13 38L1480.12 58.2307L1457.68 71.18L1400.23 104.471L1395.17 101.541L1384.72 95.5187L1284.43 37.5613L1341.88 4.32533L1349.45 0H1344.36L1339.41 2.73733L1281.96 35.9733L1244.29 14.4267L1242.07 13.168L1239.85 11.8813L1219.39 0H1214.33L1279.36 37.5613L1239.96 60.2293L1221.83 70.7147L1203.41 81.3653L1182.9 93.192L1164.29 104.032L1158.66 100.776L1148.78 95.0813L1048.51 37.124L1105.96 3.888L1112.78 0H1107.69L1103.5 2.436L1045.97 35.5907L1008.49 13.9347L1006.27 12.7307L1004.05 11.444L984.22 0H979.16L1043.42 37.124L1004.05 59.9013L985.889 70.3587L928.437 103.595L812.575 36.7133L870.028 3.47733L876.101 0H871.04L810.031 35.2347L749.104 0H744.016L807.541 36.7133L692.637 103.184L576.748 36.2747L634.2 3.04L639.452 0H634.364L631.628 1.58667L574.012 34.824L513.824 0H508.735L546.763 21.9013L571.549 36.22L562.685 41.34L514.043 69.5107L456.591 102.747L413.993 78.1067L346.665 39.2867L340.728 35.864L350.495 30.1147L398.235 2.73733L402.777 0H397.716L395.719 1.14933L338.267 34.3867L278.543 0H273.481L335.531 35.864L325.216 41.8053L319.143 45.336L278.105 69.1L220.653 102.336L117.568 42.8173L104.791 35.4267L162.325 2.19067L166.128 0H161.04L159.781 0.738667L129.523 18.2053L111.001 28.9107L102.247 33.9747L99.6747 32.4693H99.5107L43.4813 0H38.3933L99.7293 35.4267L64.712 55.6573L42.196 68.6613L-15.2573 101.897L-20.2907 98.996L-30.824 93.0827L-99 53.576V56.5067L-39.6053 90.8107L-18.9227 102.747L-17.9093 103.349L-18.9493 103.951L-21.6853 105.457L-75.3893 136.612L-89.2333 144.607L-99 150.245V153.312L-93.3093 150.027L-75.308 139.624L-63.4347 132.643L-15.3387 104.827L8.81867 118.789L100.468 171.737L43.016 204.973L-14.6 238.181L-99 189.451V192.38L-17.144 239.687L-36.2947 250.803L-74.596 272.923L-99 286.968V289.897L-72.1333 274.375L-71.232 273.853L-49.6187 261.369L-16.7893 242.371L-14.6827 241.139L101.125 308.048L43.6733 341.284L-13.78 374.52L-41.6573 358.395L-99 325.323V328.252L-72.1613 343.748L-16.7067 375.807L-16.4053 375.971L-73.8587 409.207L-99 423.716V426.645L-71.396 410.657L-49.756 398.201L-13.8613 377.449L101.945 444.359L91.0027 450.601L44.3027 477.595L-13.1507 510.831L-28.6347 501.879L-99 461.196V464.125L-39.0587 498.757L-16.7067 511.679L-15.6667 512.281L-16.7067 512.884L-73.1733 545.517L-99 560.439V563.368L-70.6573 546.941L-13.204 513.705L0.474673 521.644L102.548 580.588L45.096 613.824L-12.3573 647.06L-99 597.069V600.025L-14.928 648.592L-16.7067 649.633L-72.4347 681.828L-99 697.16V700.116L-69.9187 683.307L-68.0027 682.184L-58.7013 676.709L-47.4027 670.165L-14.572 651.167L-12.4653 649.961L43.2627 682.184L45.0133 683.197L102.329 716.324L103.451 716.953L45.9987 750.135L-11.4547 783.371L-99 732.969V735.899L-14.4907 784.712L-14.1893 784.904L-71.6427 818.14L-99 833.908V836.837L-69.18 819.617L-24.476 793.773L-11.6453 786.355L104.163 853.264L69.144 873.496L46.628 886.5L-10.9053 919.873L-15.94 916.971L-26.4187 910.92L-99 868.841V871.771L-35.1733 908.648L-14.4907 920.585L-13.4773 921.187L-14.5173 921.789L-17.2533 923.295L-70.9573 954.451L-84.8013 962.444L-99 970.657V973.587L-88.8773 967.756L-70.876 957.352L-59.0027 950.508L-10.9067 922.611L13.2507 936.573L104.901 989.52L47.448 1022.76L-10.004 1055.99L-99 1004.74V1007.67L-12.712 1057.55L-31.8627 1068.67L-70.164 1090.79L-99 1107.38V1110.31L-67.7027 1092.35L-66.7987 1091.83L-45.1853 1079.35L-12.356 1060.35L-10.2493 1059.11L105.64 1125.89L48.1867 1159.12L-9.26533 1192.36L-37.1427 1176.23L-99 1140.59V1143.54L-67.7293 1161.59L-12.2747 1193.64L-11.9733 1193.81L-69.4267 1227.05L-77.9893 1231.97H-72.928L-66.964 1228.52L-45.324 1216.04L-9.42933 1195.29L54.2053 1231.97H59.1307L-6.88533 1193.81L4.05867 1187.46L50.5667 1160.57L108.02 1127.34L122.629 1135.77L223.855 1194.25L204.075 1205.66L158.66 1231.97H163.639L169.111 1228.96L197.864 1212.34L226.563 1195.73L289.268 1231.97H294.329L229.025 1194.25L247.053 1183.84L286.559 1161.01L344.012 1127.77L459.791 1194.69L418.289 1218.67L402.284 1227.89L395.336 1231.97H400.396L404.883 1229.37L462.336 1196.14L473.279 1202.46L524.439 1231.97H529.527L473.361 1199.53L464.961 1194.69L473.361 1189.84L522.605 1161.42L540.525 1151.07L580.14 1128.19L679.915 1185.84L695.92 1195.1L660.901 1215.33L638.385 1228.33L632.093 1231.97H637.181L640.929 1229.81L698.383 1196.57L739.584 1220.37L759.664 1231.97H764.725L717.615 1204.76L708.587 1199.53L700.927 1195.1L758.379 1161.86L815.831 1128.62L931.639 1195.53L906.715 1210.07L868.66 1231.97H873.721L876.757 1230.22L894.349 1220.06L934.264 1196.98L994.808 1231.97H999.897L983.865 1222.69L936.809 1195.53L994.261 1162.3L1010.68 1152.85L1051.85 1129.06L1111.87 1163.72L1158.63 1190.74L1167.63 1195.94L1110.23 1229.23L1105.42 1231.97H1110.48L1112.75 1230.66L1134.31 1218.28L1158.66 1204.19L1170.2 1197.53L1230.01 1231.97H1235.07L1219.67 1223.13L1203.25 1213.69L1172.58 1195.97L1230.03 1162.74L1246.45 1153.29L1287.48 1129.5L1347.51 1164.19L1402.96 1196.22L1403.29 1196.41L1345.84 1229.65L1341.76 1232H1346.85L1348.39 1231.1L1370 1218.61L1405.92 1197.86L1465.2 1231.97H1470.27L1408.65 1196.38L1419.6 1190L1466.11 1163.15L1523.56 1129.91L1538.17 1138.34L1639.4 1196.79L1619.64 1208.24L1578.6 1231.97H1583.67L1584.45 1231.51L1613.24 1214.89L1642 1198.27L1700.37 1231.97H1705.47L1644.59 1196.79L1662.63 1186.39ZM1756.37 992.559L1721.36 1012.79L1698.84 1025.79L1644.13 1057.47L1641.39 1059.03L1564.11 1014.43L1525.53 992.121L1582.99 958.885L1640.44 925.649L1756.37 992.559ZM1169.46 1058.26L1053.68 991.355L1090.75 969.945L1108.75 959.543L1120.6 952.671L1158.66 930.769L1168.72 924.965L1250.55 972.245L1284.53 991.875L1268.33 1001.21L1248.83 1012.49L1246.61 1013.78L1242.51 1016.13L1227 1025.11L1203.41 1038.8L1169.46 1058.26ZM168.672 682.184L223.553 650.481L300.648 695.024L337.5 716.324L339.333 717.392L252.908 767.327L224.292 783.753L125.337 726.617L108.621 716.953L166.073 683.717L168.809 682.184H168.672ZM1162.49 241.795L1143.34 252.937L1105.03 275.059L1061.59 300.136L1047.5 308.349L1008.54 285.817L1006.33 284.559L978.256 268.296L931.748 241.357L989.2 208.121L1006.27 198.265L1046.71 174.913L1061.1 183.125L1158.66 239.605L1162.49 241.795ZM1168.72 921.872L1163.69 918.969L1153.21 912.919L1052.94 854.961L1110.4 821.725L1155.1 795.909L1158.6 793.883L1167.93 788.408L1283.73 855.317L1244.29 878.151L1226.15 888.636L1203.31 901.832L1168.72 921.872ZM1163.25 378.107L1105.8 411.341L1048.35 444.577L1010.87 422.923L1008.65 421.636L1006.44 420.376L979.597 404.853L932.404 377.805L989.856 344.569L1006.27 335.124L1047.45 311.333L1107.5 345.883L1158.68 375.477L1163.25 378.107ZM1283.39 311.635L1343.4 346.321L1398.87 378.352L1399.19 378.544L1341.73 411.78L1284.28 445.016L1246.8 423.36L1244.59 422.073L1242.37 420.787L1215.34 405.183L1203.41 398.283L1168.31 377.996L1225.77 344.761L1242.19 335.316L1283.39 311.635ZM1167.99 785.56L1052.18 718.679L1052.56 718.459L1072.78 706.769L1109.71 685.443L1111.63 684.32L1120.93 678.844L1132.23 672.301L1158.66 657.052L1167.25 652.097L1282.59 718.897L1282.97 719.089L1225.52 752.324L1203.41 765.109L1167.99 785.56ZM816.268 718.24L842.423 703.128L873.803 685.004L874.952 684.429L909.697 664.361L931.283 651.877L987.668 684.429L994.644 688.453L1046.76 718.568L1047.12 718.788L989.665 752.024L932.212 785.259L816.816 718.568L816.268 718.24ZM810.797 718.459L753.645 751.476L732.088 763.823L726.233 767.217L715.099 773.652L696.139 784.603L683.335 777.211L666.045 767.217L581.453 718.349L580.332 717.692L637.784 684.456L638.221 684.211L695.319 651.221L811.097 718.131L810.743 718.349L810.797 718.459ZM574.121 718.459L517.708 751.037L489.529 767.327L470.68 778.279L460.229 784.328L437.549 771.243L430.873 767.383L344.421 717.281L346.255 716.215L359.933 708.275L401.847 684.045L405.267 682.075L459.381 650.811L468.847 656.285L517.299 684.429L575.271 717.912L574.148 718.568L574.121 718.459ZM777.201 467.328L788.719 460.676L812.22 446.987L907.016 501.741H907.18L928.027 513.76L913.719 521.973L870.492 546.968L842.861 562.901L812.985 580.396L697.124 513.568L717.369 501.851L754.631 480.332L762.455 475.815L777.147 467.328H777.201ZM1163.94 514.417L1162.9 515.019L1106.46 547.544L1049.01 580.779L1008.57 557.427L933.197 513.869L954.181 501.741L990.704 480.661L1030.89 457.472L1048.13 447.535L1140.57 501.003L1158.66 511.46L1163.94 514.417ZM1169.03 514.417L1183.03 506.204L1190.01 502.18L1226.56 481.072L1266.85 457.773L1284.07 447.836L1376.45 501.221L1398.81 514.143L1399.88 514.773L1398.81 515.375L1342.37 548.091L1284.92 581.327L1244.29 557.947L1203.25 534.265L1169.03 514.417ZM1232.47 554.032L1282.29 582.777L1252.75 599.861L1244.29 604.68L1224.78 615.987L1203.41 628.361L1167.25 649.249L1051.44 582.367L1108.89 549.131L1158.57 520.412L1166.43 515.896L1232.47 554.032ZM996.559 553.593L1046.35 582.367L1016.86 599.56L1008.49 604.405L988.844 615.74L937.876 645.088L931.309 648.839L922.036 643.364L815.529 581.82L872.983 548.584L884.528 542.068L906.085 529.612L930.571 515.457L996.559 553.593ZM810.524 581.929L753.071 615.165L695.619 648.401L659.725 627.676L579.484 581.491L631.737 551.376L637.017 548.337L694.469 515.075L810.524 581.929ZM634.665 546.804L616.636 557.235L577.157 580.04L461.351 513.131L469.011 508.723L518.885 479.895L576.337 446.659L617.128 470.257L692.117 513.568L634.665 546.804ZM469.011 520.495L574.613 581.491L517.161 614.755L459.709 647.991L414.157 621.653L343.929 581.08L401.381 547.844L434.923 528.38L458.724 514.691L469.011 520.495ZM522.36 684.429L468.929 653.548L462.007 649.551L468.929 645.553L513.796 619.628L528.953 610.867L577.076 583.079L692.856 649.989L635.404 683.224L577.952 716.46L522.36 684.429ZM757.64 684.429L697.944 649.879L755.396 616.644L809.019 585.68L812.931 583.408L928.739 650.289L903.159 665.073L871.204 683.525L813.752 716.761L757.64 684.429ZM1030.89 706.331L1010.59 694.613L1008.38 693.327L999.104 687.988L961.485 666.251L933.745 650.208L978.037 624.637L991.279 616.972L994.015 615.467L1008.49 607.116L1048.92 583.736L1079.87 601.613L1158.66 647.141L1164.7 650.619L1162.92 651.659L1107.2 683.855L1051.06 716.269L1049.66 717.091L1030.89 706.331ZM1260.71 703.183L1246.61 694.969L1244.4 693.711L1236.96 689.384L1203.41 670.029L1169.79 650.619L1214.19 625.131L1227.46 617.492L1230.06 615.987L1244.53 607.609L1284.97 584.256L1315.91 602.133L1400.72 651.167L1398.92 652.179L1343.11 684.429L1287 716.844L1285.57 717.665L1260.71 703.183ZM1288.47 718.815L1308.52 707.235L1345.65 685.771L1347.56 684.676L1356.87 679.2L1368.16 672.684L1401 653.685L1403.13 652.453L1458.72 684.593L1460.47 685.607L1517.92 718.733L1519.01 719.363L1461.56 752.599L1404.12 785.835L1288.07 719.089L1288.47 718.815ZM1287.37 582.696L1344.83 549.46L1402.28 516.224L1415.96 524.163L1518.23 583.133L1460.77 616.369L1403.32 649.605L1287.37 582.696ZM1386.93 504.343L1286.64 446.412L1344.09 413.176L1365.71 400.665L1401.63 379.94L1517.4 446.823L1506.47 453.065L1459.73 480.059L1402.28 513.295L1386.93 504.343ZM1281.57 446.412L1244.29 467.957L1242.07 469.245L1223.93 479.731L1203.31 491.639L1166.4 512.967L1150.89 503.987L1050.62 446.056L1108.07 412.82L1129.71 400.336L1158.49 383.691L1165.61 379.584L1281.57 446.412ZM1045.64 445.975L1008.49 467.437L1006.27 468.724L988.105 479.209L959.599 495.636L930.571 512.391L842.123 461.36L814.764 445.619L872.216 412.383L889.808 402.225L929.723 379.147L1045.64 445.975ZM902.311 392.151L812.275 444.167L713.211 386.921L704.155 381.692L696.495 377.257L753.947 344.021L811.399 310.785L927.316 377.805L902.311 392.151ZM735.124 402.444L809.703 445.536L716.275 499.605L694.635 512.089L578.827 445.208L636.279 411.972L693.731 378.736L735.124 402.444ZM656.36 397.407L633.844 410.411L576.392 443.647L542.523 424.347L468.929 381.829L460.529 376.984L468.929 372.137L518.173 343.748L536.093 333.372L575.708 310.484L675.483 368.141L691.488 377.395L656.36 397.407ZM468.929 384.54L562.193 438.417L573.793 445.125L549.171 459.335L516.34 478.361L459.381 511.213L458.807 511.543L348.963 448.083L343.027 444.632L373.367 427.084L400.451 411.424L457.904 378.188L468.929 384.54ZM413.912 400.747L397.935 410L383.681 418.213L340.4 443.236L224.593 376.327L242.621 365.923L282.127 343.091L339.579 309.855L455.387 376.764L413.912 400.747ZM413.912 488.628L456.208 513.048L413.912 537.468L398.673 546.284L341.221 579.52L330.277 573.223L225.441 512.637L244.208 501.687L282.948 479.292L332.603 450.601L340.483 446.056L413.912 488.628ZM413.912 624.528L456.947 649.359L440.093 659.105L413.912 674.217L341.877 715.831L226.071 648.948L283.523 615.712L306.039 602.681L341.057 582.476L413.912 624.528ZM421.299 764.672L457.685 785.671L418.371 808.393L400.151 818.905L342.699 852.141L226.836 785.315L284.288 752.079L341.74 718.843L421.299 764.672ZM354.927 847.953L402.667 820.384L460.12 787.148L473.279 794.732L551.14 839.712L575.927 854.031L567.063 859.151L518.475 887.349L461.023 920.585L418.453 895.945L351.179 857.097L345.243 853.675L354.927 847.953ZM473.361 791.803L462.745 785.725L473.361 779.592L520.28 752.489L538.2 742.14L577.815 719.253L691.241 784.793L693.595 786.163L658.576 806.367L636.06 819.399L578.608 852.635L473.361 791.803ZM638.604 820.795L696.056 787.559L812.028 854.551L697.124 921.023L581.071 854.168L638.604 820.795ZM715.372 795.745L706.344 790.543L698.683 786.108L756.135 752.872L813.588 719.636L929.668 786.601L904.636 801.056L814.6 853.072L715.372 795.745ZM874.541 821.315L931.993 788.079L1047.8 854.961L1008.43 877.712L990.267 888.171L932.815 921.407L817.035 854.524L874.541 821.315ZM1012.89 831.855L1010.7 830.568L1008.49 829.281L934.62 786.601L992.072 753.365L1008.49 743.92L1010.7 742.633L1049.66 720.02L1158.66 782.987L1165.44 786.901L1107.99 820.137L1050.54 853.373L1012.89 831.855ZM1248.83 832.265L1246.61 831.007L1244.4 829.72L1203.36 806.039L1170.53 787.039L1227.98 753.803L1244.4 744.357L1246.61 743.071L1285.57 720.567L1401.05 787.285L1401.37 787.449L1343.92 820.685L1286.48 853.921L1248.83 832.265ZM1346.39 822.164L1391.09 796.347L1403.92 788.928L1519.71 855.837L1484.68 876.069L1462.17 889.101L1404.72 922.337L1399.65 919.408L1389.2 913.384L1288.91 855.427L1346.39 822.164ZM1519.68 852.881H1519.51L1406.44 787.559L1463.89 754.323L1521.35 721.087L1535.96 729.547L1600.73 766.972L1637.12 787.997L1579.67 821.233L1549.39 838.727L1530.87 849.432L1522.13 854.469L1519.68 852.881ZM1499.19 705.044L1405.71 651.167L1463.15 617.931L1520.6 584.695L1636.57 651.576L1579.12 684.812L1562.49 694.421L1521.59 718.048L1499.19 705.044ZM1404.96 514.745L1426.85 502.015L1434.43 497.635L1462.36 481.509L1511.91 452.873L1519.89 448.273L1635.68 515.156L1578.23 548.392L1520.77 581.628L1404.96 514.745ZM1518.83 444.632L1517.29 443.756L1404.23 378.435L1415.17 372.056L1461.68 345.199L1519.13 311.963L1533.73 320.395L1634.96 378.845L1615.21 390.289L1519.92 445.344L1518.83 444.632ZM1492.76 293.703L1403.48 242.233L1460.93 208.997L1518.39 175.761L1625.39 237.579L1634.2 242.671L1576.75 275.907L1519.29 309.143L1492.76 293.703ZM1516.75 310.484L1459.29 343.72L1401.84 376.956L1373.96 360.859L1285.89 310.184L1343.35 276.948L1344.25 276.427L1365.87 263.916L1398.69 244.916L1400.83 243.712L1516.75 310.484ZM1379.16 253.348L1340.87 275.469L1297.44 300.573L1283.33 308.787L1244.29 286.201L1242.07 284.915L1214.19 268.735L1203.41 262.52L1167.69 241.823L1225.14 208.587L1242.21 198.704L1282.59 175.213L1297.01 183.427L1398.4 242.015L1379.16 253.348ZM1280.84 310.184L1251.04 327.376L1223.3 343.419L1217.39 346.841L1203.41 354.917L1165.77 376.655L1137.89 360.529L1050.04 309.745L1107.5 276.509L1108.4 275.989L1130.01 263.505L1162.84 244.505L1164.18 243.712L1164.95 243.273L1280.84 310.184ZM1044.9 309.745L1015.14 326.939L987.367 342.981L981.457 346.403L929.832 376.217L814.052 309.363L871.505 276.153L928.957 242.891L1044.9 309.745ZM869.043 274.62L811.591 307.856L704.62 246.093L695.728 240.919L753.18 207.683L810.633 174.447L898.179 225.095L926.303 241.357L869.043 274.62ZM808.855 309.307L751.403 342.571L693.951 375.807L681.147 368.415L663.856 358.395L578.116 308.896L635.568 275.661L693.02 242.425L808.855 309.307ZM633.105 274.183L575.653 307.419L459.791 240.536L468.929 235.252L517.325 207.3L519.131 206.232L526.737 201.852L574.86 174.064L690.64 240.919L633.105 274.183ZM468.956 248.721L573.081 308.952L515.629 342.187L487.451 358.449L467.233 370.139L458.095 375.423L428.74 358.449L414.021 349.963L370.959 325.076L342.315 308.651L367.868 293.893L399.823 275.415L457.275 242.179L468.956 248.721ZM413.939 264.108L339.689 307.008L223.827 240.097L235.071 233.609L281.279 206.861L338.731 173.627L454.729 240.536L413.939 264.108ZM278.543 274.62L337.089 308.459L222.185 374.931L201.94 363.268L122.984 317.712L106.187 308.048L163.639 274.812L179.124 265.86L221.173 241.576L278.543 274.62ZM337.828 444.769L280.376 478.005L274.303 481.509L222.841 511.241L116.72 449.944L107.965 444.907L107.007 444.359L151.027 418.871L164.541 411.068L193.295 394.451L222.076 377.805L337.828 444.769ZM338.567 581.08L303.576 601.312L281.033 614.316L246.863 634.055L223.525 647.552L146.348 602.955L107.745 580.643L165.28 547.544L222.732 514.308L338.567 581.08ZM340.044 853.703L329.757 859.643L323.684 863.175L282.647 886.939L225.195 920.175L122 860.656L109.223 853.264L166.676 820.028L224.128 786.792L340.044 853.703ZM340.783 990.013L305.901 1010.22L283.359 1023.22L228.641 1054.9L225.907 1056.49L148.564 1011.86L109.961 989.575L167.415 956.339L224.867 923.104L340.783 990.013ZM332.384 982.211L227.548 921.625L273.756 894.932L285.055 888.389L334.737 859.643L342.616 855.071L437.795 910.072L438.889 910.701L458.424 921.981L418.371 945.115L400.889 955.217L343.437 988.453L332.384 982.211ZM403.379 956.749L460.831 923.515L473.252 930.687L541.181 969.836L576.748 990.424L519.296 1023.66L461.843 1056.9L346.063 989.985L403.379 956.749ZM463.567 922.063L473.443 916.368L521.101 888.827L578.553 855.591L638.249 890.087L694.388 922.611L636.936 955.847L588.348 983.936L579.428 989.083L463.567 922.063ZM610.097 974.08L639.425 957.133L696.877 923.897L812.657 990.807L766.832 1017.28L755.151 1024.04L697.699 1057.28L687.137 1051.28L581.809 990.451L610.097 974.08ZM699.421 922.611L756.873 889.375L779.389 876.371L804.34 861.971L814.408 856.139L909.204 910.893L930.216 923.021L872.764 956.257L815.311 989.493L699.421 922.611ZM875.28 957.763L896.456 945.497L899.793 943.581L932.787 924.417L1014.64 971.671L1048.59 991.3L1032.4 1000.66L1012.89 1011.91L1010.7 1013.2L1006.6 1015.58L991.06 1024.54L959.407 1042.85L933.525 1057.77L901.981 1039.57L817.745 990.889L875.28 957.763ZM1010.7 966.579L935.332 923.049L956.343 910.92L992.865 889.759L1010.7 879.464L1050.4 856.523L1144.46 910.865L1158.66 919.079L1166.18 923.432L1165.14 924.035L1162.4 925.54L1108.56 956.668L1094.69 964.661L1050.92 989.904L1010.7 966.579ZM1246.61 967.016L1203.41 942.048L1171.27 923.487L1192.25 911.359L1228.8 890.251L1246.61 879.929L1286.31 856.905L1380.4 911.249L1401.05 923.185L1402.09 923.76L1401.03 924.391L1398.43 925.896L1344.56 956.996L1330.71 964.991L1286.93 990.232L1246.61 967.016ZM1326.67 970.411L1344.69 960.008L1356.53 953.164L1404.67 925.348L1428.81 939.311L1520.44 992.231L1462.99 1025.47L1405.53 1058.7L1289.73 991.82L1326.67 970.411ZM1407.17 923.869L1453.49 897.123L1464.71 890.635L1503.61 868.157L1522.25 857.399L1619.25 913.467L1638.03 924.417L1580.57 957.653L1523.12 990.889L1407.17 923.869ZM1755.64 856.357L1745.32 862.327L1739.23 865.831L1698.19 889.593L1640.73 922.829L1537.57 863.203L1524.79 855.837L1582.24 822.601L1639.69 789.365L1755.64 856.357ZM1716.21 697.597L1753.15 718.897L1755.01 719.937L1668.33 769.873L1639.72 786.3L1540.65 729.055L1523.95 719.417L1581.4 686.181L1584.13 684.648L1639.01 652.945L1716.21 697.597ZM1754.16 583.653L1719.15 603.859L1696.63 616.889L1662.45 636.629L1639.09 650.125L1561.89 605.528L1523.35 583.133L1580.8 549.897L1638.24 516.661L1754.16 583.653ZM1753.43 447.343L1695.97 480.579L1689.89 484.083L1638.24 513.815L1532.17 452.517L1523.43 447.452L1522.47 446.905L1566.6 421.608L1580.08 413.805L1608.87 396.969L1637.61 380.543L1753.43 447.343ZM1694.11 277.193L1752.68 311.032L1637.61 377.504L1617.4 365.813L1538.55 320.313L1521.84 310.649L1579.29 277.413L1594.77 268.488L1636.83 244.177L1694.11 277.193ZM1751.95 174.721L1716.93 194.953L1694.41 208.067L1639.69 239.741L1636.96 241.303L1559.67 196.596L1521.09 174.283L1578.55 141.075L1636 107.812L1751.95 174.721ZM1449.07 79.1747L1460.28 72.6867L1499.19 50.2093L1517.87 39.4493L1614.88 95.5187L1633.65 106.469L1576.09 139.624L1518.64 172.86L1402.75 105.923L1449.07 79.1747ZM1424.44 121.363L1516.07 174.283L1458.61 207.547L1401.16 240.755L1285.16 173.872L1322.23 152.436L1340.27 142.033L1352.11 135.188L1400.23 107.401L1424.44 121.363ZM1187.82 93.384L1224.37 72.276L1242.19 61.9827L1281.88 39.04L1375.96 93.384L1396.61 105.32L1397.65 105.895L1396.59 106.524L1393.99 108.031L1340.04 139.159L1326.36 147.18L1282.59 172.476L1242.16 149.124L1203.39 126.701L1166.81 105.595L1187.82 93.384ZM1246.12 154.243L1280.09 173.872L1263.91 183.236L1244.29 194.377L1242.07 195.664L1237.97 198.019L1222.46 206.999L1203.31 217.949L1165 240.125L1049.25 173.435L1086.32 152.025L1104.32 141.623L1116.17 134.777L1164.29 106.963L1246.12 154.243ZM951.911 93.0827L988.433 71.9747L1006.27 61.544L1045.97 38.6013L1140.03 93.0813L1158.66 103.841L1161.69 105.621L1160.65 106.224L1157.92 107.729L1104.24 138.748L1090.37 146.741L1046.6 171.984L1006.27 148.603L930.9 105.073L951.911 93.0827ZM1010.21 153.969L1044.16 173.571L1027.97 182.935L1008.49 194.187L1006.27 195.473L1002.17 197.855L986.628 206.807L954.975 225.123L929.093 240.043L897.549 221.755L813.313 173.024L870.767 139.788L891.941 127.523L895.279 125.607L928.273 106.443L1010.21 153.969ZM752.496 71.564L775.012 58.532L799.963 44.132L810.031 38.3013L904.827 93.0533L925.839 105.181L868.387 138.417L810.933 171.653L694.989 104.635L752.496 71.564ZM808.225 173.024L762.4 199.497L750.719 206.26L693.267 239.496L682.788 233.445L577.377 172.476L605.583 156.187L634.911 139.24L692.364 106.004L808.225 173.024ZM468.929 98.5573L516.56 70.9893L574.012 37.7533L633.708 72.248L689.792 104.663L632.34 137.872L583.779 165.96L574.86 171.107L459.107 104.225L468.929 98.5573ZM468.929 112.877L536.695 152.025L572.261 172.613L514.808 205.849L457.356 239.085L341.467 172.175L398.919 138.939L456.372 105.703L468.929 112.877ZM269.215 77.12L280.513 70.5773L330.305 41.8853L338.184 37.3133L423.296 86.5933L434.485 93.0813L454.019 104.361L413.939 127.495L396.484 137.596L339.032 170.832L328.089 164.508L223.143 103.785L269.215 77.12ZM336.241 172.201L301.251 192.405L278.872 205.328L224.155 236.976L221.419 238.563L144.132 194.048L105.529 171.736L162.983 138.5L220.435 105.264L336.241 172.201ZM-12.7947 103.376L33.5227 76.656L44.74 70.1947L83.616 47.7187L102.247 36.9587L199.204 93.0827L217.972 104.033L160.52 137.269L103.068 170.505L-12.7947 103.376ZM77.1867 291.24L-12.056 239.688L45.396 206.452L102.849 173.217L210.148 235.035L218.929 240.099L161.477 273.333L103.724 306.624L77.1867 291.24ZM101.809 441.293L-11.3173 375.972L-0.373329 369.62L46.1347 342.736L103.588 309.5L118.197 317.96L219.423 376.411L199.643 387.827L104.463 442.881L103.287 442.197L101.809 441.293ZM-10.5773 512.283L11.308 499.58L18.9133 495.2L46.956 479.101L96.4747 450.493L104.463 445.865L220.271 512.776L162.817 546.012L105.365 579.248L-10.5773 512.283ZM83.616 702.609L-9.83999 648.592L47.612 615.356L105.065 582.121L221.091 649.031L163.639 682.267L147.005 691.876L105.968 715.503L83.616 702.609ZM104.107 850.309H103.943L-9.10133 784.905L48.3507 751.669L105.804 718.433L120.413 726.865L185.197 764.289L221.611 785.316L164.213 818.579L133.955 836.073L115.433 846.777L106.679 851.841L104.107 850.309ZM-8.36267 921.216L37.9547 894.441L49.172 887.98L88.048 865.503L106.679 854.744L203.719 910.785L222.487 921.736L165.035 954.972L107.581 988.208L-8.36267 921.216ZM81.564 1109.08L-7.62267 1057.5L49.828 1024.26L107.281 991.028L214.307 1052.87L223.088 1057.94L165.636 1091.17L108.184 1124.41L81.564 1109.08ZM226.563 1192.77L206.345 1181.11L127.416 1135.52L110.7 1125.89L168.153 1092.65L183.637 1083.7L225.769 1059.5L283.003 1092.35L341.467 1126.3L226.563 1192.77ZM228.341 1057.94L239.585 1051.45L285.875 1024.7L343.328 991.465L459.107 1058.38L418.316 1081.95L344.203 1124.85L228.341 1057.94ZM519.952 1159.97L491.773 1176.23L471.555 1187.92L462.417 1193.21L433.063 1176.23L418.371 1167.75L375.281 1142.86L346.637 1126.3L372.191 1111.54L404.145 1093.06L461.597 1059.83L473.279 1066.56L577.404 1126.79L519.952 1159.97ZM464.223 1058.38L473.361 1053.09L521.757 1025.14L523.563 1024.07L531.169 1019.69L579.292 991.904L695.072 1058.79L637.62 1092.02L580.031 1125.2L464.223 1058.38ZM755.889 1160.38L698.437 1193.62L685.633 1186.25L668.343 1176.23L582.629 1126.74L640.081 1093.5L697.535 1060.26L813.313 1127.15L755.889 1160.38ZM815.94 1125.7L709.052 1063.93L700.16 1058.79L757.612 1025.55L815.065 992.315L902.611 1042.96L930.736 1059.22L873.283 1092.46L815.94 1125.7ZM1019.57 1144.86L991.799 1160.79L985.889 1164.22L934.264 1194.03L818.484 1127.12L875.937 1093.88L933.389 1060.65L1049.2 1127.56L1019.57 1144.86ZM1051.88 1126.19L1012.89 1103.68L1010.7 1102.4L982.688 1086.25L936.18 1059.31L993.632 1026.07L1010.73 1016.19L1051.17 992.835L1065.56 1001.05L1158.57 1054.84L1166.78 1059.61L1147.63 1070.75L1109.33 1092.84L1065.89 1117.95L1051.88 1126.19ZM1255.48 1145.35L1227.87 1161.26L1221.96 1164.68L1203.55 1175.3L1170.34 1194.47L1142.46 1178.34L1054.53 1127.56L1111.98 1094.32L1112.89 1093.8L1134.5 1081.32L1158.71 1067.33L1169.52 1061.09L1285.32 1127.94L1255.48 1145.35ZM1248.83 1104.29L1246.61 1103L1218.63 1086.82L1203.41 1078.03L1172.01 1059.88L1229.46 1026.65L1246.53 1016.79L1286.96 993.409L1301.39 1001.62L1402.96 1060.07L1383.81 1071.19L1345.51 1093.31L1302.09 1118.39L1287.97 1126.6L1248.83 1104.29ZM1463.64 1161.92L1406.2 1195.15L1378.35 1178.81L1290.33 1127.94L1347.79 1094.71L1348.68 1094.16L1370.29 1081.67L1403.13 1062.67L1405.27 1061.47L1521.04 1128.35L1463.64 1161.92ZM1497.19 1111.9L1407.92 1060.32L1465.37 1027.08L1522.83 993.847L1630.04 1055.42L1638.83 1060.51L1581.37 1093.75L1523.92 1126.98L1497.19 1111.9ZM1621.83 1183.65L1542.99 1138.1L1526.27 1128.43L1583.72 1095.2L1599.2 1086.27L1641.25 1061.96L1698.44 1095.09L1757.01 1128.93L1641.93 1195.4L1621.83 1183.65Z" fill="#151515"/>
</svg>
