<svg xmlns="http://www.w3.org/2000/svg" version="1.1" xmlns:xlink="http://www.w3.org/1999/xlink" xmlns:svgjs="http://svgjs.dev/svgjs" width="1440" height="560" preserveAspectRatio="none" viewBox="0 0 1440 560"><g mask="url(&quot;#SvgjsMask1113&quot;)" fill="none"><rect width="1440" height="560" x="0" y="0" fill="rgba(14, 71, 39, 0.02)"></rect><path d="M3.78 -9.52L68.73 27.98L68.73 102.98L3.78 140.48L-61.17 102.98L-61.17 27.98zM68.73 102.98L133.69 140.48L133.69 215.48L68.73 252.98L3.78 215.48L3.78 140.48zM3.78 440.48L68.73 477.98L68.73 552.98L3.78 590.48L-61.17 552.98L-61.17 477.98zM68.73 552.98L133.69 590.48L133.69 665.48L68.73 702.98L3.78 665.48L3.78 590.48zM133.69 -9.52L198.64 27.98L198.64 102.98L133.69 140.48L68.73 102.98L68.73 27.98zM198.64 102.98L263.59 140.48L263.59 215.48L198.64 252.98L133.69 215.48L133.69 140.48zM133.69 215.48L198.64 252.98L198.64 327.98L133.69 365.48L68.73 327.98L68.73 252.98zM133.69 440.48L198.64 477.98L198.64 552.98L133.69 590.48L68.73 552.98L68.73 477.98zM263.59 -9.52L328.55 27.98L328.55 102.98L263.59 140.48L198.64 102.98L198.64 27.98zM328.55 102.98L393.5 140.48L393.5 215.48L328.55 252.98L263.59 215.48L263.59 140.48zM263.59 215.48L328.55 252.98L328.55 327.98L263.59 365.48L198.64 327.98L198.64 252.98zM263.59 440.48L328.55 477.98L328.55 552.98L263.59 590.48L198.64 552.98L198.64 477.98zM328.55 552.98L393.5 590.48L393.5 665.48L328.55 702.98L263.59 665.48L263.59 590.48zM588.36 102.98L653.32 140.48L653.32 215.48L588.36 252.98L523.41 215.48L523.41 140.48zM653.32 215.48L718.27 252.98L718.27 327.98L653.32 365.48L588.36 327.98L588.36 252.98zM718.27 552.98L783.23 590.48L783.23 665.48L718.27 702.98L653.32 665.48L653.32 590.48zM848.18 552.98L913.13 590.48L913.13 665.48L848.18 702.98L783.22 665.48L783.22 590.48zM913.13 215.48L978.09 252.98L978.09 327.98L913.13 365.48L848.18 327.98L848.18 252.98zM978.09 327.98L1043.04 365.48L1043.04 440.48L978.09 477.98L913.13 440.48L913.13 365.48zM913.13 440.48L978.09 477.98L978.09 552.98L913.13 590.48L848.18 552.98L848.18 477.98zM978.09 552.98L1043.04 590.48L1043.04 665.48L978.09 702.98L913.13 665.48L913.13 590.48zM1107.99 102.98L1172.95 140.48L1172.95 215.48L1107.99 252.98L1043.04 215.48L1043.04 140.48zM1043.04 440.48L1107.99 477.98L1107.99 552.98L1043.04 590.48L978.09 552.98L978.09 477.98zM1237.9 102.98L1302.85 140.48L1302.85 215.48L1237.9 252.98L1172.95 215.48L1172.95 140.48zM1172.95 215.48L1237.9 252.98L1237.9 327.98L1172.95 365.48L1107.99 327.98L1107.99 252.98zM1237.9 327.98L1302.85 365.48L1302.85 440.48L1237.9 477.98L1172.95 440.48L1172.95 365.48zM1172.95 440.48L1237.9 477.98L1237.9 552.98L1172.95 590.48L1107.99 552.98L1107.99 477.98zM1367.81 102.98L1432.76 140.48L1432.76 215.48L1367.81 252.98L1302.86 215.48L1302.86 140.48zM1302.86 215.48L1367.81 252.98L1367.81 327.98L1302.86 365.48L1237.9 327.98L1237.9 252.98zM1367.81 327.98L1432.76 365.48L1432.76 440.48L1367.81 477.98L1302.86 440.48L1302.86 365.48zM1367.81 552.98L1432.76 590.48L1432.76 665.48L1367.81 702.98L1302.86 665.48L1302.86 590.48zM1432.76 215.48L1497.72 252.98L1497.72 327.98L1432.76 365.48L1367.81 327.98L1367.81 252.98zM1432.76 440.48L1497.72 477.98L1497.72 552.98L1432.76 590.48L1367.81 552.98L1367.81 477.98z" stroke="#03305d" stroke-width="2"></path><path d="M-3.72 -9.52 a7.5 7.5 0 1 0 15 0 a7.5 7.5 0 1 0 -15 0zM61.23 27.98 a7.5 7.5 0 1 0 15 0 a7.5 7.5 0 1 0 -15 0zM61.23 102.98 a7.5 7.5 0 1 0 15 0 a7.5 7.5 0 1 0 -15 0zM-3.72 140.48 a7.5 7.5 0 1 0 15 0 a7.5 7.5 0 1 0 -15 0zM-68.67 102.98 a7.5 7.5 0 1 0 15 0 a7.5 7.5 0 1 0 -15 0zM-68.67 27.98 a7.5 7.5 0 1 0 15 0 a7.5 7.5 0 1 0 -15 0zM126.19 140.48 a7.5 7.5 0 1 0 15 0 a7.5 7.5 0 1 0 -15 0zM126.19 215.48 a7.5 7.5 0 1 0 15 0 a7.5 7.5 0 1 0 -15 0zM61.23 252.98 a7.5 7.5 0 1 0 15 0 a7.5 7.5 0 1 0 -15 0zM-3.72 215.48 a7.5 7.5 0 1 0 15 0 a7.5 7.5 0 1 0 -15 0zM-3.72 440.48 a7.5 7.5 0 1 0 15 0 a7.5 7.5 0 1 0 -15 0zM61.23 477.98 a7.5 7.5 0 1 0 15 0 a7.5 7.5 0 1 0 -15 0zM61.23 552.98 a7.5 7.5 0 1 0 15 0 a7.5 7.5 0 1 0 -15 0zM-3.72 590.48 a7.5 7.5 0 1 0 15 0 a7.5 7.5 0 1 0 -15 0zM-68.67 552.98 a7.5 7.5 0 1 0 15 0 a7.5 7.5 0 1 0 -15 0zM-68.67 477.98 a7.5 7.5 0 1 0 15 0 a7.5 7.5 0 1 0 -15 0zM126.19 590.48 a7.5 7.5 0 1 0 15 0 a7.5 7.5 0 1 0 -15 0zM126.19 665.48 a7.5 7.5 0 1 0 15 0 a7.5 7.5 0 1 0 -15 0zM61.23 702.98 a7.5 7.5 0 1 0 15 0 a7.5 7.5 0 1 0 -15 0zM-3.72 665.48 a7.5 7.5 0 1 0 15 0 a7.5 7.5 0 1 0 -15 0zM126.19 -9.52 a7.5 7.5 0 1 0 15 0 a7.5 7.5 0 1 0 -15 0zM191.14 27.98 a7.5 7.5 0 1 0 15 0 a7.5 7.5 0 1 0 -15 0zM191.14 102.98 a7.5 7.5 0 1 0 15 0 a7.5 7.5 0 1 0 -15 0zM256.09 140.48 a7.5 7.5 0 1 0 15 0 a7.5 7.5 0 1 0 -15 0zM256.09 215.48 a7.5 7.5 0 1 0 15 0 a7.5 7.5 0 1 0 -15 0zM191.14 252.98 a7.5 7.5 0 1 0 15 0 a7.5 7.5 0 1 0 -15 0zM191.14 327.98 a7.5 7.5 0 1 0 15 0 a7.5 7.5 0 1 0 -15 0zM126.19 365.48 a7.5 7.5 0 1 0 15 0 a7.5 7.5 0 1 0 -15 0zM61.23 327.98 a7.5 7.5 0 1 0 15 0 a7.5 7.5 0 1 0 -15 0zM126.19 440.48 a7.5 7.5 0 1 0 15 0 a7.5 7.5 0 1 0 -15 0zM191.14 477.98 a7.5 7.5 0 1 0 15 0 a7.5 7.5 0 1 0 -15 0zM191.14 552.98 a7.5 7.5 0 1 0 15 0 a7.5 7.5 0 1 0 -15 0zM256.09 -9.52 a7.5 7.5 0 1 0 15 0 a7.5 7.5 0 1 0 -15 0zM321.05 27.98 a7.5 7.5 0 1 0 15 0 a7.5 7.5 0 1 0 -15 0zM321.05 102.98 a7.5 7.5 0 1 0 15 0 a7.5 7.5 0 1 0 -15 0zM386 140.48 a7.5 7.5 0 1 0 15 0 a7.5 7.5 0 1 0 -15 0zM386 215.48 a7.5 7.5 0 1 0 15 0 a7.5 7.5 0 1 0 -15 0zM321.05 252.98 a7.5 7.5 0 1 0 15 0 a7.5 7.5 0 1 0 -15 0zM321.05 327.98 a7.5 7.5 0 1 0 15 0 a7.5 7.5 0 1 0 -15 0zM256.09 365.48 a7.5 7.5 0 1 0 15 0 a7.5 7.5 0 1 0 -15 0zM256.09 440.48 a7.5 7.5 0 1 0 15 0 a7.5 7.5 0 1 0 -15 0zM321.05 477.98 a7.5 7.5 0 1 0 15 0 a7.5 7.5 0 1 0 -15 0zM321.05 552.98 a7.5 7.5 0 1 0 15 0 a7.5 7.5 0 1 0 -15 0zM256.09 590.48 a7.5 7.5 0 1 0 15 0 a7.5 7.5 0 1 0 -15 0zM386 590.48 a7.5 7.5 0 1 0 15 0 a7.5 7.5 0 1 0 -15 0zM386 665.48 a7.5 7.5 0 1 0 15 0 a7.5 7.5 0 1 0 -15 0zM321.05 702.98 a7.5 7.5 0 1 0 15 0 a7.5 7.5 0 1 0 -15 0zM256.09 665.48 a7.5 7.5 0 1 0 15 0 a7.5 7.5 0 1 0 -15 0zM580.86 102.98 a7.5 7.5 0 1 0 15 0 a7.5 7.5 0 1 0 -15 0zM645.82 140.48 a7.5 7.5 0 1 0 15 0 a7.5 7.5 0 1 0 -15 0zM645.82 215.48 a7.5 7.5 0 1 0 15 0 a7.5 7.5 0 1 0 -15 0zM580.86 252.98 a7.5 7.5 0 1 0 15 0 a7.5 7.5 0 1 0 -15 0zM515.91 215.48 a7.5 7.5 0 1 0 15 0 a7.5 7.5 0 1 0 -15 0zM515.91 140.48 a7.5 7.5 0 1 0 15 0 a7.5 7.5 0 1 0 -15 0zM710.77 252.98 a7.5 7.5 0 1 0 15 0 a7.5 7.5 0 1 0 -15 0zM710.77 327.98 a7.5 7.5 0 1 0 15 0 a7.5 7.5 0 1 0 -15 0zM645.82 365.48 a7.5 7.5 0 1 0 15 0 a7.5 7.5 0 1 0 -15 0zM580.86 327.98 a7.5 7.5 0 1 0 15 0 a7.5 7.5 0 1 0 -15 0zM710.77 552.98 a7.5 7.5 0 1 0 15 0 a7.5 7.5 0 1 0 -15 0zM775.73 590.48 a7.5 7.5 0 1 0 15 0 a7.5 7.5 0 1 0 -15 0zM775.73 665.48 a7.5 7.5 0 1 0 15 0 a7.5 7.5 0 1 0 -15 0zM710.77 702.98 a7.5 7.5 0 1 0 15 0 a7.5 7.5 0 1 0 -15 0zM645.82 665.48 a7.5 7.5 0 1 0 15 0 a7.5 7.5 0 1 0 -15 0zM645.82 590.48 a7.5 7.5 0 1 0 15 0 a7.5 7.5 0 1 0 -15 0zM840.68 552.98 a7.5 7.5 0 1 0 15 0 a7.5 7.5 0 1 0 -15 0zM905.63 590.48 a7.5 7.5 0 1 0 15 0 a7.5 7.5 0 1 0 -15 0zM905.63 665.48 a7.5 7.5 0 1 0 15 0 a7.5 7.5 0 1 0 -15 0zM840.68 702.98 a7.5 7.5 0 1 0 15 0 a7.5 7.5 0 1 0 -15 0zM775.72 665.48 a7.5 7.5 0 1 0 15 0 a7.5 7.5 0 1 0 -15 0zM775.72 590.48 a7.5 7.5 0 1 0 15 0 a7.5 7.5 0 1 0 -15 0zM905.63 215.48 a7.5 7.5 0 1 0 15 0 a7.5 7.5 0 1 0 -15 0zM970.59 252.98 a7.5 7.5 0 1 0 15 0 a7.5 7.5 0 1 0 -15 0zM970.59 327.98 a7.5 7.5 0 1 0 15 0 a7.5 7.5 0 1 0 -15 0zM905.63 365.48 a7.5 7.5 0 1 0 15 0 a7.5 7.5 0 1 0 -15 0zM840.68 327.98 a7.5 7.5 0 1 0 15 0 a7.5 7.5 0 1 0 -15 0zM840.68 252.98 a7.5 7.5 0 1 0 15 0 a7.5 7.5 0 1 0 -15 0zM1035.54 365.48 a7.5 7.5 0 1 0 15 0 a7.5 7.5 0 1 0 -15 0zM1035.54 440.48 a7.5 7.5 0 1 0 15 0 a7.5 7.5 0 1 0 -15 0zM970.59 477.98 a7.5 7.5 0 1 0 15 0 a7.5 7.5 0 1 0 -15 0zM905.63 440.48 a7.5 7.5 0 1 0 15 0 a7.5 7.5 0 1 0 -15 0zM970.59 552.98 a7.5 7.5 0 1 0 15 0 a7.5 7.5 0 1 0 -15 0zM840.68 477.98 a7.5 7.5 0 1 0 15 0 a7.5 7.5 0 1 0 -15 0zM1035.54 590.48 a7.5 7.5 0 1 0 15 0 a7.5 7.5 0 1 0 -15 0zM1035.54 665.48 a7.5 7.5 0 1 0 15 0 a7.5 7.5 0 1 0 -15 0zM970.59 702.98 a7.5 7.5 0 1 0 15 0 a7.5 7.5 0 1 0 -15 0zM1100.49 102.98 a7.5 7.5 0 1 0 15 0 a7.5 7.5 0 1 0 -15 0zM1165.45 140.48 a7.5 7.5 0 1 0 15 0 a7.5 7.5 0 1 0 -15 0zM1165.45 215.48 a7.5 7.5 0 1 0 15 0 a7.5 7.5 0 1 0 -15 0zM1100.49 252.98 a7.5 7.5 0 1 0 15 0 a7.5 7.5 0 1 0 -15 0zM1035.54 215.48 a7.5 7.5 0 1 0 15 0 a7.5 7.5 0 1 0 -15 0zM1035.54 140.48 a7.5 7.5 0 1 0 15 0 a7.5 7.5 0 1 0 -15 0zM1100.49 477.98 a7.5 7.5 0 1 0 15 0 a7.5 7.5 0 1 0 -15 0zM1100.49 552.98 a7.5 7.5 0 1 0 15 0 a7.5 7.5 0 1 0 -15 0zM1230.4 102.98 a7.5 7.5 0 1 0 15 0 a7.5 7.5 0 1 0 -15 0zM1295.35 140.48 a7.5 7.5 0 1 0 15 0 a7.5 7.5 0 1 0 -15 0zM1295.35 215.48 a7.5 7.5 0 1 0 15 0 a7.5 7.5 0 1 0 -15 0zM1230.4 252.98 a7.5 7.5 0 1 0 15 0 a7.5 7.5 0 1 0 -15 0zM1230.4 327.98 a7.5 7.5 0 1 0 15 0 a7.5 7.5 0 1 0 -15 0zM1165.45 365.48 a7.5 7.5 0 1 0 15 0 a7.5 7.5 0 1 0 -15 0zM1100.49 327.98 a7.5 7.5 0 1 0 15 0 a7.5 7.5 0 1 0 -15 0zM1295.35 365.48 a7.5 7.5 0 1 0 15 0 a7.5 7.5 0 1 0 -15 0zM1295.35 440.48 a7.5 7.5 0 1 0 15 0 a7.5 7.5 0 1 0 -15 0zM1230.4 477.98 a7.5 7.5 0 1 0 15 0 a7.5 7.5 0 1 0 -15 0zM1165.45 440.48 a7.5 7.5 0 1 0 15 0 a7.5 7.5 0 1 0 -15 0zM1230.4 552.98 a7.5 7.5 0 1 0 15 0 a7.5 7.5 0 1 0 -15 0zM1165.45 590.48 a7.5 7.5 0 1 0 15 0 a7.5 7.5 0 1 0 -15 0zM1360.31 102.98 a7.5 7.5 0 1 0 15 0 a7.5 7.5 0 1 0 -15 0zM1425.26 140.48 a7.5 7.5 0 1 0 15 0 a7.5 7.5 0 1 0 -15 0zM1425.26 215.48 a7.5 7.5 0 1 0 15 0 a7.5 7.5 0 1 0 -15 0zM1360.31 252.98 a7.5 7.5 0 1 0 15 0 a7.5 7.5 0 1 0 -15 0zM1295.36 215.48 a7.5 7.5 0 1 0 15 0 a7.5 7.5 0 1 0 -15 0zM1295.36 140.48 a7.5 7.5 0 1 0 15 0 a7.5 7.5 0 1 0 -15 0zM1360.31 327.98 a7.5 7.5 0 1 0 15 0 a7.5 7.5 0 1 0 -15 0zM1295.36 365.48 a7.5 7.5 0 1 0 15 0 a7.5 7.5 0 1 0 -15 0zM1425.26 365.48 a7.5 7.5 0 1 0 15 0 a7.5 7.5 0 1 0 -15 0zM1425.26 440.48 a7.5 7.5 0 1 0 15 0 a7.5 7.5 0 1 0 -15 0zM1360.31 477.98 a7.5 7.5 0 1 0 15 0 a7.5 7.5 0 1 0 -15 0zM1295.36 440.48 a7.5 7.5 0 1 0 15 0 a7.5 7.5 0 1 0 -15 0zM1360.31 552.98 a7.5 7.5 0 1 0 15 0 a7.5 7.5 0 1 0 -15 0zM1425.26 590.48 a7.5 7.5 0 1 0 15 0 a7.5 7.5 0 1 0 -15 0zM1425.26 665.48 a7.5 7.5 0 1 0 15 0 a7.5 7.5 0 1 0 -15 0zM1360.31 702.98 a7.5 7.5 0 1 0 15 0 a7.5 7.5 0 1 0 -15 0zM1295.36 665.48 a7.5 7.5 0 1 0 15 0 a7.5 7.5 0 1 0 -15 0zM1295.36 590.48 a7.5 7.5 0 1 0 15 0 a7.5 7.5 0 1 0 -15 0zM1490.22 252.98 a7.5 7.5 0 1 0 15 0 a7.5 7.5 0 1 0 -15 0zM1490.22 327.98 a7.5 7.5 0 1 0 15 0 a7.5 7.5 0 1 0 -15 0zM1490.22 477.98 a7.5 7.5 0 1 0 15 0 a7.5 7.5 0 1 0 -15 0zM1490.22 552.98 a7.5 7.5 0 1 0 15 0 a7.5 7.5 0 1 0 -15 0z" fill="#03305d"></path><path d="M138.19 105.9L208.34 146.4L208.34 227.4L138.19 267.9L68.04 227.4L68.04 146.4zM68.04 470.4L138.19 510.9L138.19 591.9L68.04 632.4L-2.11 591.9L-2.11 510.9zM208.34 227.4L278.49 267.9L278.49 348.9L208.34 389.4L138.19 348.9L138.19 267.9zM208.34 470.4L278.49 510.9L278.49 591.9L208.34 632.4L138.19 591.9L138.19 510.9zM348.64 -15.6L418.79 24.9L418.79 105.9L348.64 146.4L278.49 105.9L278.49 24.9zM348.64 227.4L418.79 267.9L418.79 348.9L348.64 389.4L278.49 348.9L278.49 267.9zM348.64 470.4L418.79 510.9L418.79 591.9L348.64 632.4L278.49 591.9L278.49 510.9zM418.79 591.9L488.94 632.4L488.94 713.4L418.79 753.9L348.64 713.4L348.64 632.4zM559.09 105.9L629.24 146.4L629.24 227.4L559.09 267.9L488.94 227.4L488.94 146.4zM488.94 227.4L559.09 267.9L559.09 348.9L488.94 389.4L418.79 348.9L418.79 267.9zM559.09 348.9L629.24 389.4L629.24 470.4L559.09 510.9L488.94 470.4L488.94 389.4zM488.94 470.4L559.09 510.9L559.09 591.9L488.94 632.4L418.79 591.9L418.79 510.9zM699.39 105.9L769.54 146.4L769.54 227.4L699.39 267.9L629.24 227.4L629.24 146.4zM699.39 591.9L769.54 632.4L769.54 713.4L699.39 753.9L629.24 713.4L629.24 632.4zM769.54 -15.6L839.69 24.9L839.69 105.9L769.54 146.4L699.39 105.9L699.39 24.9zM839.69 105.9L909.84 146.4L909.84 227.4L839.69 267.9L769.54 227.4L769.54 146.4zM769.54 227.4L839.69 267.9L839.69 348.9L769.54 389.4L699.39 348.9L699.39 267.9zM839.69 348.9L909.84 389.4L909.84 470.4L839.69 510.9L769.54 470.4L769.54 389.4zM769.54 470.4L839.69 510.9L839.69 591.9L769.54 632.4L699.39 591.9L699.39 510.9zM909.84 -15.6L979.99 24.9L979.99 105.9L909.84 146.4L839.69 105.9L839.69 24.9zM909.84 470.4L979.99 510.9L979.99 591.9L909.84 632.4L839.69 591.9L839.69 510.9zM979.99 591.9L1050.14 632.4L1050.14 713.4L979.99 753.9L909.84 713.4L909.84 632.4zM1050.14 -15.6L1120.29 24.9L1120.29 105.9L1050.14 146.4L979.99 105.9L979.99 24.9zM1120.29 105.9L1190.44 146.4L1190.44 227.4L1120.29 267.9L1050.14 227.4L1050.14 146.4zM1050.14 227.4L1120.29 267.9L1120.29 348.9L1050.14 389.4L979.99 348.9L979.99 267.9zM1120.29 348.9L1190.44 389.4L1190.44 470.4L1120.29 510.9L1050.14 470.4L1050.14 389.4zM1260.59 105.9L1330.74 146.4L1330.74 227.4L1260.59 267.9L1190.44 227.4L1190.44 146.4zM1190.44 227.4L1260.59 267.9L1260.59 348.9L1190.44 389.4L1120.29 348.9L1120.29 267.9zM1190.44 470.4L1260.59 510.9L1260.59 591.9L1190.44 632.4L1120.29 591.9L1120.29 510.9zM1400.89 105.9L1471.04 146.4L1471.04 227.4L1400.89 267.9L1330.74 227.4L1330.74 146.4zM1330.74 470.4L1400.89 510.9L1400.89 591.9L1330.74 632.4L1260.59 591.9L1260.59 510.9zM1400.89 591.9L1471.04 632.4L1471.04 713.4L1400.89 753.9L1330.74 713.4L1330.74 632.4zM1541.19 105.9L1611.34 146.4L1611.34 227.4L1541.19 267.9L1471.04 227.4L1471.04 146.4zM1471.04 227.4L1541.19 267.9L1541.19 348.9L1471.04 389.4L1400.89 348.9L1400.89 267.9zM1541.19 348.9L1611.34 389.4L1611.34 470.4L1541.19 510.9L1471.04 470.4L1471.04 389.4zM1541.19 591.9L1611.34 632.4L1611.34 713.4L1541.19 753.9L1471.04 713.4L1471.04 632.4z" stroke="rgba(10, 61, 22, 0.93)" stroke-width="2"></path></g><defs><mask id="SvgjsMask1113"><rect width="1440" height="560" fill="#ffffff"></rect></mask></defs></svg>